HIERARCHY
ROOT Hips
{
    OFFSET 0.000000 0.000000 0.000000
    CHANNELS 6 Xposition Yposition Zposition Zrotation Xrotation Yrotation
    JOINT Spine
    {
        OFFSET -0.000000 14.517291 0.000000
        CHANNELS 3 Zrotation Xrotation Yrotation
        JOINT Spine1
        {
            OFFSET -0.000000 37.558300 0.000000
            CHANNELS 3 Zrotation Xrotation Yrotation
            JOINT Neck
            {
                OFFSET -0.000000 37.404057 3.400369
                CHANNELS 3 Zrotation Xrotation Yrotation
                JOINT Head
                {
                    OFFSET -0.000000 24.785618 -3.540803
                    CHANNELS 3 Zrotation Xrotation Yrotation
                    End Site
                    {
                        OFFSET -0.000000 35.408028 0.000000
                    }
                }
            }
            JOINT LeftShoulder
            {
                OFFSET 6.992933 33.973492 -0.192664
                CHANNELS 3 Zrotation Xrotation Yrotation
                JOINT LeftArm
                {
                    OFFSET 21.527611 0.000000 0.000000
                    CHANNELS 3 Zrotation Xrotation Yrotation
                    JOINT LeftForeArm
                    {
                        OFFSET 56.353916 0.000000 0.000000
                        CHANNELS 3 Zrotation Xrotation Yrotation
                        JOINT LeftHand
                        {
                            OFFSET 47.774071 0.000000 0.000000
                            CHANNELS 3 Zrotation Xrotation Yrotation
                            End Site
                            {
                                OFFSET 26.556021 0.000000 0.000000
                            }
                        }
                    }
                }
            }
            JOINT RightShoulder
            {
                OFFSET -7.065357 33.973492 -0.192664
                CHANNELS 3 Zrotation Xrotation Yrotation
                JOINT RightArm
                {
                    OFFSET -21.527611 0.000000 0.000000
                    CHANNELS 3 Zrotation Xrotation Yrotation
                    JOINT RightForeArm
                    {
                        OFFSET -56.353916 0.000000 0.000000
                        CHANNELS 3 Zrotation Xrotation Yrotation
                        JOINT RightHand
                        {
                            OFFSET -47.774071 0.000000 0.000000
                            CHANNELS 3 Zrotation Xrotation Yrotation
                            End Site
                            {
                                OFFSET -26.556021 0.000000 0.000000
                            }
                        }
                    }
                }
            }
        }
    }
    JOINT LeftUpLeg
    {
        OFFSET 17.704014 0.000000 0.000000
        CHANNELS 3 Zrotation Xrotation Yrotation
        JOINT LeftLeg
        {
            OFFSET -0.000000 -81.181816 0.000000
            CHANNELS 3 Zrotation Xrotation Yrotation
            JOINT LeftFoot
            {
                OFFSET -0.000000 -62.821102 0.000000
                CHANNELS 3 Zrotation Xrotation Yrotation
                JOINT LeftToeBase
                {
                    OFFSET -0.000000 -11.507608 26.556021
                    CHANNELS 3 Zrotation Xrotation Yrotation
                    End Site
                    {
                        OFFSET -0.000000 0.000000 7.081605
                    }
                }
            }
        }
    }
    JOINT RightUpLeg
    {
        OFFSET -17.704014 0.000000 0.000000
        CHANNELS 3 Zrotation Xrotation Yrotation
        JOINT RightLeg
        {
            OFFSET -0.000000 -81.181816 0.000000
            CHANNELS 3 Zrotation Xrotation Yrotation
            JOINT RightFoot
            {
                OFFSET -0.000000 -62.821102 0.000000
                CHANNELS 3 Zrotation Xrotation Yrotation
                JOINT RightToeBase
                {
                    OFFSET -0.000000 -11.507608 26.556021
                    CHANNELS 3 Zrotation Xrotation Yrotation
                    End Site
                    {
                        OFFSET -0.000000 0.000000 7.081605
                    }
                }
            }
        }
    }
}
MOTION
Frames:    5
Frame Time:    0.008333
-14.861260    163.334076    -22.725170    -9.428154    -14.482958    30.480820    -1.032273    -1.388799    -17.230862    2.913772    10.269238    -5.993978    28.743523    -0.582030    -4.719098    -10.146525    3.794886    -10.529879    17.911919    10.253328    -35.960445    -24.198610    12.439131    -58.123898    14.267941    -50.148071    -83.249596    -20.263927    -37.431290    -27.015982    9.661805    -2.604992    -17.471102    18.834574    -6.458527    15.898514    -0.135633    15.176632    98.030769    -19.229568    12.582336    16.579529    15.244596    -0.901409    10.773949    -3.362348    34.043583    -14.071678    9.034400    -20.380903    36.597748    0.000000    0.000000    0.000000    -106.934029    -53.478874    -70.109016    8.482185    17.798273    -10.088845    16.343740    28.034712    -25.595224    0.000000    0.000000    0.000000    
-14.816708    163.306793    -22.719488    -9.388506    -14.491581    30.508854    -1.037365    -1.381249    -17.213541    2.941165    10.282783    -5.991010    28.673958    -0.608377    -4.749511    -10.074363    3.803471    -10.548254    17.896059    10.265853    -35.960831    -24.191360    12.473708    -58.197514    14.277391    -50.148705    -83.202492    -20.247854    -37.433159    -27.040003    9.622549    -2.601340    -17.473059    18.815987    -6.362891    15.724473    -0.188075    15.100207    98.066048    -19.242163    12.554280    16.627136    15.218513    -0.882786    10.784171    -3.383472    34.076962    -14.092274    9.062774    -20.405170    36.615944    0.000000    0.000000    0.000000    -106.942604    -53.472622    -70.111946    8.450125    17.816427    -10.019306    16.334845    28.043678    -25.606384    0.000000    0.000000    0.000000    
-14.771913    163.279373    -22.708475    -9.345706    -14.503619    30.549345    -1.036477    -1.378170    -17.191235    2.945991    10.289301    -5.984182    28.634796    -0.602806    -4.797254    -10.027522    3.786304    -10.586272    17.895874    10.285292    -35.970226    -24.196081    12.479964    -58.265938    14.279124    -50.148190    -83.181725    -20.254175    -37.435997    -27.025528    9.585214    -2.587593    -17.469784    18.799835    -6.281230    15.577343    -0.233990    15.028905    98.096474    -19.188274    12.545531    16.605585    15.194542    -0.858459    10.782540    -3.413313    34.103016    -14.114973    9.093424    -20.434593    36.644939    0.000000    0.000000    0.000000    -106.956528    -53.451870    -70.091545    8.438387    17.849695    -9.952264    16.343096    28.017363    -25.608404    0.000000    0.000000    0.000000    
-14.721759    163.252777    -22.690790    -9.291184    -14.532831    30.601023    -1.025042    -1.352820    -17.176121    2.946724    10.281286    -5.979174    28.530537    -0.596081    -4.841812    -9.906531    3.790985    -10.600114    17.862818    10.306514    -35.968082    -24.197453    12.492930    -58.300076    14.216052    -50.112278    -83.222908    -20.194906    -37.447121    -26.988220    9.528759    -2.564010    -17.457024    18.801334    -6.195096    15.464271    -0.289740    14.956774    98.132004    -19.185705    12.540388    16.578548    15.162952    -0.801534    10.771728    -3.433164    34.104702    -14.110314    9.102734    -20.479649    36.638142    0.000000    0.000000    0.000000    -106.942574    -53.425652    -70.038818    8.434188    17.881582    -9.922131    16.313982    28.006113    -25.542189    0.000000    0.000000    0.000000    
-14.672899    163.230545    -22.666403    -9.231535    -14.574390    30.664427    -1.017767    -1.323146    -17.160379    2.949601    10.285419    -5.974476    28.431549    -0.603877    -4.884413    -9.789291    3.814639    -10.615347    17.831585    10.323771    -35.963783    -24.217896    12.486788    -58.329849    14.139430    -50.050343    -83.277885    -20.155149    -37.429184    -26.953955    9.482643    -2.544511    -17.423582    18.804552    -6.100190    15.419552    -0.146622    14.877994    98.285118    -19.302692    12.490108    15.355956    15.133459    -0.730348    10.770800    -3.420760    34.104073    -14.144738    9.129120    -20.505041    36.607819    0.000000    0.000000    0.000000    -106.913620    -53.401638    -70.000168    8.410597    17.931391    -9.843579    16.277290    27.993130    -25.471048    0.000000    0.000000    0.000000    
